
<svg width="26px" height="24px" viewBox="0 0 26 24" version="1.1" xmlns="http://www.w3.org/2000/svg" xmlns:xlink="http://www.w3.org/1999/xlink">
    <!-- Generator: Sketch 45.2 (43514) - http://www.bohemiancoding.com/sketch -->
    <desc>Created with Sketch.</desc>
    <defs></defs>
    <g id="Page-1" stroke="none" stroke-width="1" fill="none" fill-rule="evenodd">
        <g id="03-shell-для-бизнеса" transform="translate(-124.000000, -384.000000)" fill="#FEFEFE">
            <g id="Group-18" transform="translate(110.000000, 368.000000)">
                <path d="M36.0112484,31.9800891 C36.0112484,31.9800891 37.1818218,31.9792874 37.1818218,33.1506625 L37.1818218,35.9712634 C37.1818218,35.9712634 37.0519363,37.1859337 35.1437413,37.1859337 L34.7613005,37.1859337 C34.7156,35.6930518 33.537009,34.4960202 32.0802063,34.4960202 C30.6234037,34.4960202 29.4440109,35.6930518 29.3991122,37.1859337 L21.9467287,37.1859337 C21.90183,35.6930518 20.7224372,34.4960202 19.2664363,34.4960202 C17.8096336,34.4960202 16.6302408,35.6930518 16.5845404,37.1859337 L16.4899324,37.1859337 L15.3618524,37.1859337 C15.3618524,37.1859337 14.2762658,37.1859337 14.2762658,36.1011489 L14.2762658,34.3228395 C14.2762658,34.3228395 15.1549976,32.9662571 16.7168312,32.9662571 C18.2786648,32.9662571 19.6135995,31.9800891 21.0014506,31.2857627 C22.3893017,30.592238 23.8645449,29.7239291 24.9918231,29.7239291 L28.896407,29.7239291 C28.896407,29.7239291 30.4574388,29.6373388 31.8460917,30.4182556 C33.2347445,31.1991723 35.2303316,31.9800891 36.0112484,31.9800891 Z M26.7492867,32.4138427 L26.7492867,30.2009779 C22.9328967,30.2009779 20.7625253,32.4138427 20.7625253,32.4138427 L26.7492867,32.4138427 Z M31.389087,32.4138427 L33.1914493,32.4138427 C32.824242,31.6609876 32.1507615,31.1638948 31.389087,30.8319651 L31.389087,32.4138427 Z M27.2696307,32.4138427 L30.9745757,32.4138427 L30.9745757,30.670009 C29.2491826,30.0686871 27.2696307,30.2009779 27.2696307,30.2009779 L27.2696307,32.4138427 Z M29.8696577,28.8342628 C30.3527153,28.1078623 31.1612708,27.6315692 32.0802063,27.6315692 C33.537009,27.6315692 34.7156,28.8286008 34.7613005,30.3214828 L35.1437413,30.3214828 C37.0519363,30.3214828 37.1818218,29.1068124 37.1818218,29.1068124 L37.1818218,26.2862116 C37.1818218,25.1148364 36.0112484,25.1156382 36.0112484,25.1156382 C35.2303316,25.1156382 33.2347445,24.3347214 31.8460917,23.5538046 C30.4574388,22.7728878 28.896407,22.8594782 28.896407,22.8594782 L24.9918231,22.8594782 C23.8645449,22.8594782 22.3893017,23.7277871 21.0014506,24.4213118 C19.6135995,25.1156382 18.2786648,26.1018062 16.7168312,26.1018062 C15.1549976,26.1018062 14.2762658,27.4583885 14.2762658,27.4583885 L14.2762658,29.236698 C14.2762658,30.3214828 15.3618524,30.3214828 15.3618524,30.3214828 L16.4899324,30.3214828 L16.5845404,30.3214828 C16.6302408,28.8286008 17.8096336,27.6315692 19.2664363,27.6315692 C20.5427369,27.6315692 21.6064942,28.5513584 21.8798734,29.7839403 C22.9423315,29.2516559 24.01355,28.7849048 24.9923042,28.7849048 L28.8752405,28.7849048 C28.907311,28.784103 28.9626326,28.7824995 29.0396018,28.7824995 C29.2271319,28.7824995 29.516825,28.7918905 29.8696577,28.8342628 Z M26.7492867,25.5493917 L26.7492867,23.3365269 C22.9328967,23.3365269 20.7625253,25.5493917 20.7625253,25.5493917 L26.7492867,25.5493917 Z M27.2696307,25.5493917 L30.9745757,25.5493917 L30.9745757,23.8055581 C29.2491826,23.2042361 27.2696307,23.3365269 27.2696307,23.3365269 L27.2696307,25.5493917 Z M37.1818218,22.9657919 L37.1818218,23.5737685 C37.1818218,23.5737685 37.1394973,23.969581 36.7482177,24.3093136 C36.3880487,24.1844138 36.0821096,24.1766138 36.0117295,24.1766138 C35.7812621,24.1766138 35.2252607,24.0250063 34.5408831,23.7686136 C34.1283926,22.7859498 33.1841844,22.0985253 32.0802063,22.0985253 C31.7683133,22.0985253 31.4691356,22.1533929 31.1910843,22.2542844 C30.2656146,21.9588679 29.4305755,21.9180485 29.0396018,21.9180485 C28.9626326,21.9180485 28.907311,21.9196521 28.8752405,21.9204538 L24.9923042,21.9204538 C23.8611168,21.9204538 22.6064212,22.5439119 21.3844851,23.1714395 C20.8944457,22.5186153 20.1289779,22.0985253 19.2664363,22.0985253 C17.8096336,22.0985253 16.6302408,23.2955569 16.5845404,24.7884389 L16.4899324,24.7884389 L15.3618524,24.7884389 C15.3618524,24.7884389 14.2762658,24.7884389 14.2762658,23.703654 L14.2762658,21.9253446 C14.2762658,21.9253446 15.1549976,20.5687622 16.7168312,20.5687622 C18.2786648,20.5687622 19.6135995,19.5825942 21.0014506,18.8882678 C22.3893017,18.1947431 23.8645449,17.3264342 24.9918231,17.3264342 L28.896407,17.3264342 C28.896407,17.3264342 30.4574388,17.2398439 31.8460917,18.0207607 C32.3314235,18.2936897 32.8908917,18.5666188 33.4467305,18.8062099 L33.4467305,21.0191123 L35.3829872,21.0191123 L35.3829872,22.9657919 L37.1818218,22.9657919 Z M20.9200729,23.4098588 C20.8067576,23.4678512 20.6937731,23.5253225 20.5810063,23.5817059 C20.2530854,23.7452655 19.9307768,23.9232568 19.6196929,24.0956358 C18.7826715,24.5573476 17.9848633,24.998032 17.1745939,25.1258234 C17.1522369,25.0021908 17.1405627,24.8748338 17.1405627,24.7447428 C17.1405627,23.5709623 18.092255,22.6192701 19.2660354,22.6192701 C19.9342093,22.6192701 20.5304167,22.9276612 20.9200729,23.4098588 Z M26.7492867,20.0163478 L26.7492867,17.8042847 C22.9328967,17.8042847 20.7625253,20.0163478 20.7625253,20.0163478 L26.7492867,20.0163478 Z M27.2696307,20.0163478 L30.9745757,20.0163478 L30.9745757,18.2725141 C29.2491826,17.6711922 27.2696307,17.8042847 27.2696307,17.8042847 L27.2696307,20.0163478 Z M31.389087,20.0163478 L33.1914493,20.0163478 C32.824242,19.2634927 32.1507615,18.7663999 31.389087,18.4344702 L31.389087,20.0163478 Z M19.2660354,28.1523942 C20.4398159,28.1523942 21.3915081,29.1040865 21.3915081,30.2778669 C21.3915081,31.4524491 20.4398159,32.4041414 19.2660354,32.4041414 C18.092255,32.4041414 17.1405627,31.4524491 17.1405627,30.2778669 C17.1405627,29.1040865 18.092255,28.1523942 19.2660354,28.1523942 Z M19.2660354,29.1154715 C18.6238236,29.1154715 18.1034796,29.6358154 18.1034796,30.2780273 C18.1034796,30.9202391 18.6238236,31.4405831 19.2660354,31.4405831 C19.9082473,31.4405831 20.4285912,30.9202391 20.4285912,30.2780273 C20.4285912,29.6358154 19.9082473,29.1154715 19.2660354,29.1154715 Z M32.106424,28.1523942 C33.2802044,28.1523942 34.2318967,29.1040865 34.2318967,30.2778669 C34.2318967,31.4524491 33.2802044,32.4041414 32.106424,32.4041414 C30.9326435,32.4041414 29.9809513,31.4524491 29.9809513,30.2778669 C29.9809513,29.1040865 30.9326435,28.1523942 32.106424,28.1523942 Z M32.106424,29.1154715 C31.4642121,29.1154715 30.9438682,29.6358154 30.9438682,30.2780273 C30.9438682,30.9202391 31.4642121,31.4405831 32.106424,31.4405831 C32.7486358,31.4405831 33.2689798,30.9202391 33.2689798,30.2780273 C33.2689798,29.6358154 32.7486358,29.1154715 32.106424,29.1154715 Z M19.2660354,35.0168452 C20.4398159,35.0168452 21.3915081,35.9685374 21.3915081,37.1423179 C21.3915081,38.3169001 20.4398159,39.2685923 19.2660354,39.2685923 C18.092255,39.2685923 17.1405627,38.3169001 17.1405627,37.1423179 C17.1405627,35.9685374 18.092255,35.0168452 19.2660354,35.0168452 Z M19.2660354,35.9800026 C18.6238236,35.9800026 18.1034796,36.5003465 18.1034796,37.1425584 C18.1034796,37.7847702 18.6238236,38.3051142 19.2660354,38.3051142 C19.9082473,38.3051142 20.4285912,37.7847702 20.4285912,37.1425584 C20.4285912,36.5003465 19.9082473,35.9800026 19.2660354,35.9800026 Z M32.106424,35.0168452 C33.2802044,35.0168452 34.2318967,35.9685374 34.2318967,37.1423179 C34.2318967,38.3169001 33.2802044,39.2685923 32.106424,39.2685923 C30.9326435,39.2685923 29.9809513,38.3169001 29.9809513,37.1423179 C29.9809513,35.9685374 30.9326435,35.0168452 32.106424,35.0168452 Z M32.106424,35.9800026 C31.4642121,35.9800026 30.9438682,36.5003465 30.9438682,37.1425584 C30.9438682,37.7847702 31.4642121,38.3051142 32.106424,38.3051142 C32.7486358,38.3051142 33.2689798,37.7847702 33.2689798,37.1425584 C33.2689798,36.5003465 32.7486358,35.9800026 32.106424,35.9800026 Z M36.3798187,16.481617 L37.9849474,16.481617 L37.9849474,18.4178737 L39.9204024,18.4178737 L39.9204024,20.0222007 L37.9849474,20.0222007 L37.9849474,21.9688803 L36.3798187,21.9688803 L36.3798187,20.0222007 L34.443562,20.0222007 L34.443562,18.4178737 L36.3798187,18.4178737 L36.3798187,16.481617 Z" id="Combined-Shape"></path>
            </g>
        </g>
    </g>
</svg>