
<svg width="20px" height="27px" viewBox="0 0 20 27" version="1.1" xmlns="http://www.w3.org/2000/svg" xmlns:xlink="http://www.w3.org/1999/xlink">
    <!-- Generator: Sketch 45.2 (43514) - http://www.bohemiancoding.com/sketch -->
    <desc>Created with Sketch.</desc>
    <defs></defs>
    <g id="Page-1" stroke="none" stroke-width="1" fill="none" fill-rule="evenodd">
        <g id="03-shell-для-бизнеса" transform="translate(-397.000000, -383.000000)" fill="#FEFEFE">
            <g id="Group-18" transform="translate(110.000000, 368.000000)">
                <path d="M305.838805,19.2041338 L305.860015,21.5906139 C305.827022,21.8521998 305.592145,23.0721484 304.046981,23.4743465 L304.010061,19.2198447 L305.838805,19.2041338 Z M306.717828,18.3101857 L303.116113,18.3416074 L303.169529,24.4861261 C306.549722,24.3651524 306.746893,21.6330333 306.746893,21.6330333 L306.717828,18.3101857 Z" id="Fill-3"></path>
                <path d="M290.008068,19.3422323 L290.044988,23.5967341 C288.493541,23.2212445 288.237454,22.0052236 288.200533,21.7444233 L288.179323,19.3579431 L290.008068,19.3422323 Z M290.887091,18.4482842 L287.285375,18.4789203 L287.313655,21.8025535 C287.313655,21.8025535 287.558744,24.5307449 290.940508,24.5928028 L290.887091,18.4482842 Z" id="Fill-5"></path>
                <polygon id="Fill-7" points="298.500968 36.8039928 295.870184 36.8267736 295.808126 29.72782 298.43891 29.7050392"></polygon>
                <path d="M300.708423,38.5386293 L293.693522,38.5999016 C293.209628,38.6038294 292.812928,38.2149855 292.809001,37.7303054 C292.805073,37.2464108 293.193917,36.850497 293.678597,36.8457837 L300.693497,36.7845114 C301.177392,36.7805837 301.573306,37.1702131 301.578019,37.6541077 C301.581947,38.1380023 301.192317,38.5347016 300.708423,38.5386293" id="Fill-9"></path>
                <path d="M290.86431,15.823863 L303.139993,15.7170291 L303.216976,24.4860475 C303.246041,27.8756663 300.522563,30.6478481 297.132159,30.6776988 C293.741755,30.7067639 290.970358,27.9832857 290.940508,24.5928814 L290.86431,15.823863 Z M297.024382,18.3229115 L296.025957,20.3912466 L293.756523,20.7408133 L295.414804,22.3299672 L295.046385,24.5962592 L297.069944,23.509853 L299.111571,24.5609098 L298.703874,22.3009021 L300.333876,20.6834687 L298.058943,20.3731791 L297.024382,18.3229115 Z" id="Combined-Shape"></path>
                <polygon id="Fill-15" points="301.577626 37.6541077 305.085076 37.6234715 305.115713 41.1309217 289.331794 41.2683918 289.301158 37.7609415 292.808608 37.7303054"></polygon>
            </g>
        </g>
    </g>
</svg>