
<svg width="52px" height="52px" viewBox="0 0 52 52" version="1.1" xmlns="http://www.w3.org/2000/svg" xmlns:xlink="http://www.w3.org/1999/xlink">
    <!-- Generator: Sketch 45.2 (43514) - http://www.bohemiancoding.com/sketch -->
    <desc>Created with Sketch.</desc>
    <defs></defs>
    <g id="Page-1" stroke="none" stroke-width="1" fill="none" fill-rule="evenodd">
        <g id="02-shell-для-бизнеса" transform="translate(-665.000000, -346.000000)" fill="#404040">
            <g id="Group-5" transform="translate(110.000000, 248.000000)">
                <path d="M594.397888,149.386954 L594.397888,114.810016 L606.998985,114.810016 L606.998985,149.386954 L594.397888,149.386954 Z M603.998985,146.386954 L603.998985,117.810016 L597.397888,117.810016 L597.397888,146.386954 L603.998985,146.386954 Z M577.755988,149.386954 L577.755988,128.464908 L590.357085,128.464908 L590.357085,149.386954 L577.755988,149.386954 Z M587.357085,146.386954 L587.357085,131.464908 L580.755988,131.464908 L580.755988,146.386954 L587.357085,146.386954 Z M561.114088,149.386954 L561.114088,137.000923 L573.715185,137.000923 L573.715185,149.386954 L561.114088,149.386954 Z M570.715185,146.386954 L570.715185,140.000923 L564.114088,140.000923 L564.114088,146.386954 L570.715185,146.386954 Z" id="Stroke-1" fill-rule="nonzero"></path>
                <path d="M558.1907,135.850106 L602.459861,102.033765 C603.118191,101.53088 603.244204,100.589529 602.741318,99.9311997 C602.238433,99.27287 601.297083,99.1468572 600.638753,99.6497423 L556.369592,133.466083 C555.711262,133.968968 555.58525,134.910319 556.088135,135.568649 C556.59102,136.226978 557.53237,136.352991 558.1907,135.850106 Z" id="Stroke-3" fill-rule="nonzero"></path>
                <polygon id="Fill-5" points="590.563946 100.332085 600.909234 101.334013 599.152873 111.575182 601.233538 111.928502 603.367114 99.4564649 590.772183 98.2343521"></polygon>
            </g>
        </g>
    </g>
</svg>