
<svg width="86px" height="52px" viewBox="0 0 86 52" version="1.1" xmlns="http://www.w3.org/2000/svg" xmlns:xlink="http://www.w3.org/1999/xlink">
    <!-- Generator: Sketch 45.2 (43514) - http://www.bohemiancoding.com/sketch -->
    <desc>Created with Sketch.</desc>
    <defs></defs>
    <g id="Page-1" stroke="none" stroke-width="1" fill="#404040" fill-rule="evenodd">
        <g id="02-shell-для-бизнеса" transform="translate(-127.000000, -348.000000)" fill="#404040">
            <g id="Group-5" transform="translate(110.000000, 248.000000)">
                <path d="M102.625493,121.462168 C102.42732,120.713109 101.660079,120.269491 100.909202,120.467665 L90.2769223,123.294819 C90.0205695,123.362088 89.7896701,123.502083 89.6096777,123.69662 L83.3135793,130.476334 C83.2008567,130.389065 83.1026791,130.289069 82.980866,130.212709 L60.9090684,115.907857 C59.7545715,115.158798 58.276452,115.087891 57.0546853,115.726046 L46.7951174,121.089457 C46.4460412,121.271267 46.0169683,121.236723 45.7024361,120.998552 C45.4842635,120.833104 45.3424513,120.591296 45.3060892,120.31858 C45.2697271,120.045864 45.3424513,119.776785 45.509717,119.558612 L50.3367864,113.278877 C51.1567518,112.211649 52.3367021,111.489861 53.6584647,111.244417 L59.3218625,110.191734 C62.4490035,109.611758 65.6106885,109.646302 68.7251028,110.30082 L74.7466674,111.564404 C75.4920905,111.722579 76.2593309,111.653491 76.9647558,111.369866 C77.0702059,111.326232 77.1702017,111.271689 77.262925,111.204419 L89.235148,102.539329 C89.8623944,102.084803 90.0023885,101.208476 89.5496802,100.58123 C89.0951539,99.9539834 88.2170091,99.8121712 87.5897628,100.266698 L75.7866236,108.809974 C75.6357208,108.848154 75.4775457,108.853609 75.3211886,108.819065 L69.3014422,107.555481 C65.827043,106.824603 62.2981008,106.784605 58.8091568,107.433668 L53.145759,108.486351 C51.5949152,108.773612 50.1767931,109.499036 49.0368411,110.560809 L43.7643359,109.722663 C43.6934298,109.711754 43.6225237,109.691755 43.5552538,109.666302 L32.0266485,100.313968 C31.4248557,99.824898 30.5430746,99.9176213 30.0540043,100.519414 C29.564934,101.121207 29.6576574,102.004806 30.2594502,102.492058 L41.9225953,111.955296 C41.9971376,112.013476 42.0753162,112.066201 42.158949,112.109835 C42.5262063,112.300736 42.918917,112.428004 43.3243545,112.493455 L46.9587468,113.069795 L43.2843561,117.849593 C42.6589279,118.664104 42.3898484,119.674971 42.5262063,120.69311 C42.6625642,121.711249 43.1898147,122.614847 44.0097801,123.234821 C45.1860942,124.125693 46.787845,124.258414 48.0950626,123.576625 L58.3528124,118.213214 C58.6800713,118.044131 59.0746002,118.060494 59.3836781,118.260485 L81.4554757,132.565337 C81.944546,132.881687 82.2790774,133.370758 82.3972542,133.939825 C82.5172492,134.508892 82.4063448,135.090685 82.0845401,135.576119 C81.4445671,136.546988 80.1628029,136.837884 79.1664812,136.241546 L67.2288022,129.09821 C66.5651938,128.701864 65.7034119,128.918218 65.3052468,129.581826 C64.9070818,130.247253 65.1234363,131.109035 65.7888628,131.505382 L75.3339154,137.217868 C75.3357335,137.219687 75.3375516,137.219687 75.3375516,137.221505 L76.4884122,137.908748 C76.8120349,138.103286 77.03748,138.414182 77.1229309,138.781439 C77.2065638,139.150514 77.1392939,139.52868 76.9302118,139.845031 C76.2102421,140.93953 74.7448493,141.304969 73.5921705,140.679541 L64.2616544,135.592482 C63.5780469,135.221589 62.7289917,135.472487 62.3580982,136.152459 C61.9872048,136.834248 62.2381033,137.685122 62.9180747,138.056015 L69.6487003,141.723133 L71.3140847,142.741272 C71.6267988,142.930355 71.8358809,143.232161 71.9049689,143.592145 C71.9740569,143.950312 71.8922421,144.308479 71.6758876,144.601194 C71.6558885,144.628465 71.6358893,144.655737 71.6195263,144.683009 C70.9813714,145.682966 69.7032434,146.030225 68.6451062,145.493884 L61.4199559,141.826765 C60.7290759,141.475871 59.8854751,141.750405 59.5345808,142.441285 C59.1836865,143.132165 59.4600385,143.975766 60.1509185,144.32666 L66.1615744,147.379259 C64.9343534,148.144681 63.4689605,148.466486 61.9835686,148.239222 L56.5547063,147.408348 L56.9401446,146.855644 C58.1619113,145.102991 57.8328343,142.668548 56.1910853,141.303151 C56.1856309,141.297697 56.1783585,141.292242 56.1710861,141.286788 C55.6583804,140.864988 55.0511333,140.595908 54.4129783,140.45955 C54.9147754,138.737804 54.3857068,136.808795 52.9312226,135.630663 C52.1603459,135.005234 51.2076588,134.665249 50.2277001,134.628887 C50.244063,134.257993 50.2331544,133.885282 50.156794,133.51257 C49.914986,132.301712 49.2113792,131.261756 48.1768774,130.589057 C46.1333271,129.258204 43.3643528,129.803635 41.9662298,131.792642 C41.6116993,131.256301 41.1499006,130.794503 40.5826518,130.445426 C38.7754551,129.32911 36.5046417,129.61637 35.0519756,131.025402 L29.9358275,124.278413 C29.7612894,124.047514 29.5194814,123.876612 29.2431294,123.789343 L18.8272044,120.485846 C18.0890537,120.25131 17.299996,120.660384 17.0654604,121.398535 C16.832743,122.136685 17.2399986,122.925743 17.9781493,123.160279 L27.9704557,126.329236 L33.3102308,133.372576 L31.8248388,135.496123 C30.4139891,137.516038 30.8976051,140.319556 32.9029752,141.748587 L32.9811537,141.80313 C33.7338493,142.339471 34.6119941,142.621277 35.5137743,142.634004 C35.5137743,144.073943 36.1846552,145.492065 37.4391478,146.375665 C38.220933,146.924732 39.1263495,147.210175 40.0554012,147.210175 C40.3299351,147.210175 40.604469,147.18654 40.880821,147.137451 C41.1335376,147.09018 41.3753456,147.012001 41.6135174,146.92655 C42.002592,147.937417 42.7207435,148.795563 43.6843393,149.313723 C44.3734012,149.684616 45.1151881,149.860972 45.8497026,149.86279 C46.5424007,149.86279 47.2241902,149.699161 47.8459822,149.395537 C48.2932361,150.231866 49.0113877,150.893656 49.9077135,151.26455 C50.4295098,151.479086 50.969487,151.582718 51.5003737,151.582718 C52.7512301,151.582718 53.9511796,151.006379 54.752964,149.971877 L61.55995,151.011833 C62.0217488,151.082739 62.4817294,151.117283 62.9380738,151.117283 C65.2870658,151.117283 67.5251533,150.191867 69.2105369,148.524665 C69.3705302,148.541028 69.5323415,148.553755 69.6923348,148.553755 C71.3649916,148.553755 72.9849234,147.726517 73.9576097,146.233852 C74.4757697,145.519337 74.7339406,144.655737 74.723032,143.781228 C74.7448493,143.781228 74.7648484,143.784865 74.7848476,143.784865 C76.5393191,143.784865 78.2574286,142.930355 79.2737494,141.386784 C79.6846412,140.761356 79.8955414,140.057749 79.9373578,139.335961 C80.0500804,139.343234 80.164621,139.357778 80.2791616,139.357778 C81.8954572,139.357778 83.4717544,138.568721 84.4262597,137.121509 C85.1625923,136.00701 85.417127,134.672521 85.1425931,133.365303 C85.1025948,133.174402 85.0316887,132.996228 84.9698731,132.814418 L91.3896028,125.901981 L101.63099,123.17846 C102.378231,122.978468 102.823667,122.211228 102.625493,121.462168 L102.625493,121.462168 Z M36.871899,139.24142 C36.6173642,139.535953 36.2791966,139.737762 35.8919402,139.80685 C35.439232,139.888665 34.9828876,139.786851 34.6065398,139.517772 L34.522907,139.457774 C33.7738476,138.925069 33.590219,137.866932 34.1229238,137.105146 L36.7937204,133.285307 C37.1227975,132.814418 37.6518661,132.559883 38.1882072,132.559883 C38.4936488,132.559883 38.8027267,132.641698 39.0790787,132.812599 C39.5099697,133.078043 39.7826855,133.465299 39.8808631,133.923462 C39.9699503,134.341626 39.8935899,134.763426 39.6808716,135.128866 L36.871899,139.24142 Z M42.0916791,142.719455 C42.0153187,142.830359 41.9662298,142.955809 41.9007781,143.072167 L41.5135216,143.639416 C41.2462602,144.030309 40.8444589,144.292116 40.379024,144.375749 C39.9172252,144.4612 39.446336,144.357568 39.0590796,144.08667 C38.2736581,143.533966 38.0773027,142.448557 38.6154619,141.663136 L39.188165,140.823171 C39.2263452,140.772264 39.273616,140.732266 39.30816,140.679541 C40.1390341,139.466865 41.1171747,138.026925 41.9462307,136.805159 C41.968048,136.772433 41.9807747,136.736071 42.0007738,136.705163 L44.2443157,133.419847 C44.7770206,132.639879 45.8533389,132.425343 46.6460327,132.939867 C47.0423797,133.198038 47.3132774,133.598021 47.4078188,134.063456 C47.5005422,134.528891 47.4041826,135.001598 47.1369212,135.392491 L46.3660445,136.523352 C46.3496816,136.546988 46.3278643,136.565169 46.3115014,136.588804 L42.0916791,142.719455 Z M48.0896083,145.068447 C48.0205203,145.166625 47.980522,145.277529 47.9205245,145.379343 L47.289642,146.295668 C46.7823906,147.033819 45.80425,147.270172 45.0170104,146.846554 C44.5715747,146.604746 44.2606787,146.204763 44.1425018,145.713874 C44.0552328,145.350253 44.0843225,144.982996 44.2206803,144.648465 L48.6768563,138.114194 C48.9550264,137.746937 49.3531914,137.505129 49.8131721,137.437859 C49.9004411,137.425132 49.9858921,137.419678 50.071343,137.419678 C50.46769,137.419678 50.8494921,137.554218 51.1658424,137.810571 C51.8712672,138.381456 52.0221699,139.415958 51.5076462,140.163199 L50.2386087,142.006758 C50.209519,142.046756 50.1713388,142.077664 50.1422491,142.11948 L48.0896083,145.068447 Z M54.6402415,145.252076 L52.5839645,148.199224 C52.2221615,148.719202 51.5603712,148.911921 50.9767594,148.671932 C50.6022297,148.515574 50.3204234,148.20286 50.2058828,147.811968 C50.1204319,147.524707 50.1367948,147.22472 50.2422449,146.953822 L52.5457843,143.604872 C52.7548664,143.3667 53.0366727,143.206707 53.3584773,143.163073 C53.7275527,143.112166 54.0893556,143.212161 54.3784343,143.444879 C54.3838887,143.448515 54.3875249,143.452151 54.3911611,143.455788 C54.925684,143.895769 55.0347703,144.684827 54.6402415,145.252076 L54.6402415,145.252076 Z" id="Fill-1"></path>
            </g>
        </g>
    </g>
</svg>