
<svg width="46px" height="57px" viewBox="0 0 46 57" version="1.1" xmlns="http://www.w3.org/2000/svg" xmlns:xlink="http://www.w3.org/1999/xlink">
    <!-- Generator: Sketch 45.2 (43514) - http://www.bohemiancoding.com/sketch -->
    <desc>Created with Sketch.</desc>
    <defs></defs>
    <g id="Page-1" stroke="none" stroke-width="1" fill="none" fill-rule="evenodd">
        <g id="02-shell-для-бизнеса" transform="translate(-398.000000, -347.000000)" fill-rule="nonzero" fill="#404040">
            <g id="Group-5" transform="translate(110.000000, 248.000000)">
                <g id="Group-12" transform="translate(289.000000, 99.792013)">
                    <path d="M22.4689865,2.56583023 C22.3725665,2.56583023 22.2976613,2.56810996 22.2447859,2.5724154 L22.1473519,2.57675956 L22.0099546,2.57675956 C17.5805639,2.57675956 14.2899329,4.82929782 14.0003888,11.0034705 L13.9950472,11.0701225 C13.9845854,11.1713392 13.9749359,11.2865471 13.9642459,11.4511298 C13.9465146,11.7241218 13.9327979,12.0346975 13.9255961,12.3770889 C13.9051119,13.3509551 13.9403626,14.3851903 14.0508108,15.4336614 C14.360396,18.3725142 15.1917154,20.8435201 16.660914,22.4859733 C17.966247,23.9455347 19.7017892,24.6588325 22.0302519,24.6731846 L22.0927052,24.6731846 L22.159897,24.6731989 C24.4864141,24.6588377 26.2234514,23.9427149 27.5302788,22.4802461 C28.5271638,21.3634961 29.2372272,19.8556057 29.6887186,18.0484833 C30.2276915,15.891211 30.3482758,13.5970556 30.230692,11.5932903 C30.2171567,11.3626337 30.2046807,11.2103625 30.1950473,11.1138399 L30.1881443,11.0456265 C29.8930129,4.77029074 26.5952862,2.56583023 22.4689865,2.56583023 Z M22.4689865,1.06583023 C24.1943297,1.06583023 26.0390167,1.48679144 27.6757679,2.580925 C30.0469965,4.16604111 31.4940459,6.89389367 31.6809233,10.8926629 C31.6991682,11.0804237 31.7132932,11.2528206 31.728116,11.5054193 C31.8538365,13.6478422 31.72583,16.0832053 31.1439871,18.4120676 C30.6380282,20.4371994 29.8266647,22.1602107 28.6490386,23.4794341 C27.046783,25.2725162 24.9030787,26.1562942 22.1645266,26.1731846 L22.0927052,26.1731846 L22.0256338,26.1731704 C19.2857509,26.1562992 17.143692,25.2759253 15.542878,23.485971 C13.8238857,21.5642674 12.8985982,18.8139515 12.5590649,15.5908052 C12.3571805,13.6743418 12.3924604,11.9970497 12.4988995,10.9540402 C12.8349068,3.83425158 16.8632018,1.07675956 22.0099546,1.07675956 L22.0927052,1.07675956 C22.2180264,1.06930879 22.3323217,1.06583023 22.4689865,1.06583023 Z M22.4689865,-0.35966676 C24.3403589,-0.35966676 26.4775402,0.122323189 28.3751279,1.34800834 C31.1729148,3.15514801 32.8918907,6.26136022 33.1041688,10.800727 C33.1160237,10.91095 33.1329766,11.1094163 33.1496673,11.3852357 C33.293295,13.7587308 33.1368072,16.4682142 32.4425644,19.0590498 C31.0330522,24.31919 27.7475251,27.5650098 22.1645266,27.5986816 L22.0927052,27.5986816 L22.0163588,27.5986679 C16.4378854,27.5650098 13.1523583,24.31919 11.7428461,19.0590498 C11.0486033,16.4682142 10.8921155,13.7587308 11.0357432,11.3852357 C11.0524339,11.1094163 11.0693868,10.91095 11.0777714,10.8456477 C11.3050448,6.01973036 13.2068439,2.85311863 16.2681127,1.11037675 C17.3861983,0.473864651 18.5933801,0.0681196664 19.8355456,-0.154163237 C20.6633817,-0.302302767 21.3434544,-0.348737429 22.0099546,-0.348737429 C22.1681491,-0.354916084 22.3080781,-0.35966676 22.4689865,-0.35966676 Z M22.4689865,1.14033324 C22.3407644,1.14033324 22.231797,1.14403275 22.0927052,1.15126257 L22.0099546,1.15126257 C21.4248692,1.15126257 20.828456,1.19198505 20.0997702,1.32238183 C19.0158464,1.51634771 17.9686394,1.86832369 17.0102161,2.41394208 C14.4002889,3.89974088 12.7794486,6.59853879 12.5726404,10.9611318 C12.5632116,11.048798 12.5482391,11.2240805 12.5330043,11.4758397 C12.3982873,13.7020826 12.5461017,16.2613915 13.1917306,18.6708053 C14.4419796,23.3365933 17.2084523,26.0696317 22.0208839,26.0986816 L22.0927052,26.0986816 L22.1600015,26.0986952 C26.9769582,26.0696317 29.7434309,23.3365933 30.9936799,18.6708053 C31.6393088,16.2613915 31.7871232,13.7020826 31.6524062,11.4758397 C31.6371714,11.2240805 31.6221989,11.048798 31.6092987,10.9161873 C31.4158913,6.80661037 29.9441604,4.14717311 27.5612648,2.60801905 C25.9398012,1.56068725 24.0759185,1.14033324 22.4689865,1.14033324 Z" id="Stroke-1"></path>
                    <path d="M22.8950303,32.064028 C22.9454785,32.1627308 22.9049291,32.1386976 22.8043442,32.1085447 C22.6169176,32.0523586 22.3759802,32.0183468 22.163902,32.0183468 C21.9595728,32.0183468 21.7271795,32.0513809 21.5464235,32.1058705 C21.4514432,32.1345027 21.4145026,32.1564493 21.465986,32.0568756 C21.422191,32.1418637 21.6120949,32.7597864 22.1702388,33.7117772 C22.7398323,32.7614053 22.9365752,32.1450417 22.8950303,32.064028 Z M22.163902,30.5183468 C23.0453211,30.5183468 23.9242555,30.7818304 24.2302195,31.3804572 C24.6307687,32.1615281 24.1267256,33.621497 22.7750986,35.5220381 L22.1581273,36.3895697 L21.5488744,35.5166003 C20.2202598,33.6128917 19.7308741,32.1493804 20.1330805,31.3688625 C20.4383735,30.7784057 21.3010563,30.5183468 22.163902,30.5183468 Z M27.7314324,43.5454463 L25.7708428,49.7273782 L25.0245955,47.62081 L23.6052888,43.6142742 L22.163902,39.5425661 L20.7224602,43.6144296 L18.5569613,49.7273782 L17.8813487,47.5971053 L16.5963282,43.5453089 L13.2323259,32.9312021 C10.6995562,34.2372848 8.13040802,35.6684019 5.86029291,37.0997631 C3.32917959,38.7017001 2.66391802,40.0770724 2.59783756,43.2734359 L2.59783756,43.6013158 L2.59249519,43.7687414 L2.58388236,43.8402728 C2.56326178,44.025858 2.56078511,44.2157817 2.57262557,44.6327967 L2.59783756,52.6174535 L41.7299665,52.6174535 L41.7299665,43.2156666 L41.7306408,42.6198073 C41.6045284,39.6478097 41.1125692,38.7736101 38.4671728,37.0989742 C36.1933416,35.6660051 33.6140493,34.2292123 31.0955434,32.9309964 L27.7314324,43.5454463 Z M26.3015738,43.0921202 L30.1998919,30.7921391 L30.9871888,31.1910803 C33.7882778,32.6104556 36.7097957,34.2184566 39.2681971,35.8307637 C42.3359553,37.7727686 43.0826143,39.0995633 43.2299665,42.5880107 L43.2299665,54.1174535 L1.09783756,54.1174535 L1.09783756,45.5508949 L1.09485624,45.3973571 C1.09320102,45.3121131 1.09112355,45.2408635 1.0860897,45.0859889 C1.08347584,45.0056369 1.08347584,45.0056369 1.08107921,44.9268923 C1.05858936,44.2521966 1.05754599,43.9942224 1.09381193,43.6680902 L1.09783756,43.3155919 C1.17397795,39.5738225 2.06854918,37.7243719 5.05918443,35.8316056 C7.61185095,34.2220877 10.5192236,32.6219119 13.3403949,31.191192 L14.1278231,30.7918581 L14.3945698,31.6334976 L18.0261867,43.0919828 L18.6355512,45.013369 L19.3085005,43.1137122 L22.163902,35.047618 L22.8709094,37.044811 L25.0192485,43.1135569 L25.6922529,45.013369 L26.3015738,43.0921202 Z M19.1885422,30.2364062 C19.9216781,29.381424 21.0498485,29.0928498 22.163902,29.0928498 C23.283873,29.0928498 24.4226365,29.3807398 25.1625669,30.2328803 C26.25975,31.4964508 25.9414224,33.4595467 24.0701337,36.1605005 L25.6172219,40.529629 L29.3368665,28.7933635 L30.1152584,29.1665619 C30.2504275,29.2313685 30.5012586,29.3536593 30.8512743,29.5275447 C31.4332091,29.8166459 32.0812943,30.1455279 32.7790767,30.508319 C34.7733365,31.5451748 36.7679198,32.646779 38.6319832,33.7668285 C39.1121255,34.055329 39.5782771,34.3419802 40.0299042,34.6268347 C43.5275384,36.8392408 44.4916281,38.5963325 44.6554635,42.5583454 L44.6554635,45.6685207 L43.1554635,45.6685207 L43.1554635,45.3827967 L44.6554635,45.3827967 L44.6554635,55.5429505 L-0.327659434,55.5429505 L-0.327659434,45.6685207 C-0.327659434,45.481098 -0.331635591,45.3236269 -0.343187492,44.9835155 C-0.368407836,44.2409774 -0.368407836,43.9235538 -0.327659434,43.6013158 L-0.327659434,43.3155919 L-0.327501297,43.2283699 C-0.243007988,39.1144846 0.879686431,36.7890036 4.29872286,34.6263148 C4.74952692,34.3419802 5.21567859,34.055329 5.69582085,33.7668285 C7.55988425,32.646779 9.55446754,31.5451748 11.5487274,30.508319 C12.2465098,30.1455279 12.8945949,29.8166459 13.4765297,29.5275447 C13.8265454,29.3536593 14.0773766,29.2313685 14.2125457,29.1665619 L14.9909375,28.7933635 L18.7105822,40.529629 L20.258898,36.1570336 C18.4182631,33.4564519 18.1072226,31.4974398 19.1885422,30.2364062 Z M25.6959858,45.2459443 L22.3951249,35.9239897 L22.6255411,35.605159 C24.3388095,33.2344809 24.5956941,31.8678719 24.0299604,31.2163448 C23.6588293,30.788932 22.8832163,30.5928498 22.163902,30.5928498 C21.4529612,30.5928498 20.6919266,30.7875145 20.3272336,31.212819 C19.766875,31.8663085 20.0193784,33.2375866 21.7056901,35.6099405 L21.9314298,35.927518 L18.6318182,45.2459443 L14.0851146,30.900133 C13.5263397,31.1781799 12.9065461,31.4929868 12.2406728,31.8391877 C10.2717971,32.8628458 8.30324481,33.9500731 6.46838165,35.0525773 C5.99729432,35.3356369 5.54034088,35.6166319 5.09976327,35.8945156 C2.1406982,37.7662533 1.24697815,39.6174506 1.17234057,43.2437706 L1.17234057,43.3155919 L1.16768678,43.6847366 C1.1332875,43.9920866 1.1332875,44.2654252 1.15594804,44.9325972 C1.16249901,45.1254712 1.16675712,45.2635173 1.16928725,45.3827967 L1.17234057,54.0429505 L43.1554635,54.0429505 L43.1554635,45.3827967 L44.6554635,45.3827967 L44.6554635,45.6685207 L43.1554635,45.6685207 L43.1554635,43.2156666 L43.156109,42.5894546 C43.0128413,39.138437 42.2986625,37.8368177 39.2288638,35.8950355 C38.7874632,35.6166319 38.3305097,35.3356369 37.8594224,35.0525773 C36.0245592,33.9500731 34.0560069,32.8628458 32.0871312,31.8391877 C31.421258,31.4929868 30.8014644,31.1781799 30.2426894,30.9001329 L25.6959858,45.2459443 Z" id="Stroke-3"></path>
                </g>
            </g>
        </g>
    </g>
</svg>