
<svg width="28px" height="23px" viewBox="0 0 28 23" version="1.1" xmlns="http://www.w3.org/2000/svg" xmlns:xlink="http://www.w3.org/1999/xlink">
    <!-- Generator: Sketch 45.2 (43514) - http://www.bohemiancoding.com/sketch -->
    <desc>Created with Sketch.</desc>
    <defs></defs>
    <g id="Page-1" stroke="none" stroke-width="1" fill="none" fill-rule="evenodd">
        <g id="03-shell-для-бизнеса" transform="translate(-931.000000, -385.000000)" fill="#FEFEFE">
            <g id="Group-18" transform="translate(110.000000, 368.000000)">
                <polygon id="Fill-5" points="821.492009 28.7753576 834.807063 28.7753576 834.807063 27.7974985 821.492009 27.7974985"></polygon>
                <path d="M827.399202,21.2327529 C827.443861,21.4537337 827.494678,21.6785643 827.494678,21.9033949 L827.494678,22.3484363 L827.494678,23.4248513 L827.494678,24.7592055 L827.494678,25.9618952 L827.494678,26.660256 C827.494678,26.781141 827.424611,26.8889364 827.306806,26.9366745 C827.21056,26.9751728 827.085826,26.9620834 826.98419,26.9620834 L826.651564,26.9620834 C826.429813,26.9620834 826.208062,26.9613134 825.986312,26.9613134 C825.093149,26.9613134 824.199986,26.9605435 823.306824,26.9590035 C823.081993,26.9590035 822.857162,26.9590035 822.632332,26.9582336 L822.290466,26.9582336 C822.19499,26.9574636 822.104904,26.9543837 822.025597,26.8943262 C821.96708,26.8488981 821.933201,26.7826809 821.927811,26.708764 C821.920112,26.6017385 821.924731,26.492403 821.924731,26.3846075 C821.925501,26.3368695 821.914722,26.2745021 821.928581,26.229074 C821.932431,26.2152146 821.944751,26.2036651 821.94937,26.1898057 C821.95707,26.1659367 821.95322,26.1366779 821.95322,26.111269 C821.95245,26.0650709 821.925501,26.0327322 821.924731,25.9857642 C821.923961,25.9364863 821.920882,25.8925981 821.941671,25.84794 C821.95707,25.8132914 821.95938,25.7593937 821.95168,25.7216652 C821.94783,25.7054959 821.935511,25.6939464 821.930121,25.6785471 C821.920882,25.655448 821.923191,25.6292691 821.923191,25.6046301 C821.923191,25.5799912 821.917032,25.5522723 821.920112,25.5284033 C821.922421,25.5099241 821.927811,25.5022244 821.935511,25.4868251 C821.95245,25.4544864 821.942441,25.3713299 821.924731,25.3413011 C821.917032,25.3274417 821.890083,25.3251318 821.886233,25.3081925 C821.882383,25.2850935 821.847735,25.2566047 821.847735,25.2327357 L821.847735,25.0556431 L821.847735,24.7207071 C821.847735,24.2702759 821.886233,23.8206147 821.886233,23.3701836 C821.886233,23.143813 821.924731,22.9174425 821.924731,22.6910719 C821.924731,22.4700912 821.918572,22.2498804 821.929351,22.0296696 C821.933971,21.9272639 821.942441,21.8271681 821.974009,21.7293821 C821.989409,21.6808742 822.000958,21.6354461 822.005578,21.5846282 C822.010198,21.5276506 821.993258,21.469133 821.993258,21.4121554 C821.992489,21.1865548 821.96477,20.9609543 821.96477,20.7345837 L821.96477,20.4188969 L821.96477,20.2679832 L821.96477,20.2448842 L821.96477,19.8160121 C821.96477,19.7967629 822.035607,19.8306415 822.054856,19.8306415 L823.097392,19.8306415 C823.116642,19.8306415 823.024245,19.7967629 823.024245,19.8160121 L823.024245,20.2448842 L823.078913,20.2448842 C823.078913,20.2456542 823.132811,20.2641334 823.134351,20.2679832 C823.14513,20.3010919 823.189788,20.3095615 823.218277,20.3195711 C823.259086,20.3349704 823.302204,20.3572995 823.345322,20.3611493 C823.39691,20.3649992 823.435408,20.3388203 823.475447,20.3111014 C823.63868,20.1986861 823.804993,20.0908906 823.974386,19.9884849 C824.129149,19.8945489 824.288533,19.8137022 824.471015,19.795993 C824.659657,19.7775137 824.861389,19.7921431 825.049261,19.8113923 C825.811529,19.889929 826.548388,20.2302548 827.152813,20.6953154 C827.192851,20.7261141 827.241359,20.7561428 827.276008,20.7931013 C827.303726,20.82313 827.313736,20.8654783 827.322206,20.9047466 C827.348385,21.0133121 827.376873,21.1234175 827.399202,21.2327529 Z M826.733565,25.2367395 C826.743575,25.1859216 826.671198,25.129714 826.671198,25.0788961 L826.671198,24.9041134 L826.671198,24.1895833 L826.671198,23.5528199 C826.671198,23.4481043 826.736645,23.3433887 826.736645,23.2386731 C826.736645,23.1539766 826.802862,23.0792897 826.719706,23.0354015 C826.678128,23.0130725 826.634239,22.9945933 826.591121,22.9745741 C826.546463,22.9545549 826.497955,22.9260661 826.449447,22.9160565 C826.361671,22.8983473 826.304693,22.9645645 826.275434,23.0384814 C826.203057,23.2240437 826.14454,23.4157656 826.100652,23.6105675 C826.009796,24.0132607 825.985157,24.4321232 826.049064,24.841746 C826.079093,25.0296182 826.13376,25.2051708 826.226157,25.3714839 C826.263115,25.4384711 826.294684,25.5270174 826.37861,25.5416468 C826.462537,25.5562762 826.510275,25.4869791 826.571102,25.4392411 C826.640399,25.3845733 826.715086,25.3314456 826.733565,25.2367395 Z M825.914012,21.4481899 C825.95713,21.4643592 826.000248,21.4805286 826.042596,21.4966979 C826.079555,21.5105573 826.117283,21.5274966 826.157321,21.5228768 C826.232778,21.5136372 826.256647,21.4481899 826.278206,21.3850525 C826.309775,21.2911165 826.341344,21.1971804 826.372142,21.1024744 C826.396011,21.0308674 826.44144,20.944631 826.41988,20.8668642 C826.397551,20.7867876 826.319785,20.7552189 826.252797,20.7190304 C826.171951,20.6759122 826.089564,20.6358739 826.006408,20.5989154 C825.640673,20.4356822 825.24337,20.3232669 824.842216,20.3032478 C824.771379,20.3001679 824.700542,20.3132574 824.640485,20.3532957 C824.567338,20.4025736 824.503431,20.4687908 824.436443,20.5265384 C824.383316,20.5727365 824.298619,20.6220144 824.27244,20.6913115 C824.252421,20.7444393 824.26936,20.8044968 824.313248,20.8399153 C824.344817,20.8645543 824.385625,20.8745639 824.422584,20.8884233 C824.467242,20.9053626 824.5119,20.9223019 824.557328,20.9392412 C824.648954,20.9738897 824.740581,21.0077683 824.832207,21.0424169 C825.012379,21.110174 825.192552,21.1779312 825.372724,21.2449184 C825.553667,21.3126756 825.733839,21.3804327 825.914012,21.4481899 Z" id="Combined-Shape"></path>
                <path d="M823.129192,20.4230548 L821.948061,20.4230548 C821.876454,20.4230548 821.817937,20.3645372 821.817937,20.2921602 L821.817937,19.843269 C821.817937,19.770892 821.876454,19.7123745 821.948061,19.7123745 L823.129192,19.7123745 C823.200799,19.7123745 823.259317,19.770892 823.259317,19.843269 L823.475678,20.3114094 C823.475678,20.3837864 823.200799,20.4230548 823.129192,20.4230548" id="Fill-9"></path>
                <path d="M823.023937,20.273758 C823.023937,20.2906973 823.010078,20.3045567 822.993139,20.3045567 L821.99603,20.3045567 C821.979091,20.3045567 821.965232,20.2906973 821.965232,20.273758 L821.965232,19.8618252 C821.965232,19.8448859 821.979091,19.8310265 821.99603,19.8310265 L822.993139,19.8310265 C823.010078,19.8310265 823.023937,19.8448859 823.023937,19.8618252 L823.023937,20.273758 Z" id="Fill-10"></path>
                <path d="M834.47359,21.2327529 C834.518248,21.4537337 834.569066,21.6785643 834.569066,21.9033949 L834.569066,22.3484363 L834.569066,23.4248513 L834.569066,24.7592055 L834.569066,25.9618952 L834.569066,26.660256 C834.569066,26.781141 834.498999,26.8889364 834.381194,26.9366745 C834.284948,26.9751728 834.160213,26.9620834 834.058577,26.9620834 L833.725951,26.9620834 C833.5042,26.9620834 833.28245,26.9613134 833.060699,26.9613134 C832.167536,26.9613134 831.274373,26.9605435 830.381211,26.9590035 C830.15638,26.9590035 829.93155,26.9590035 829.706719,26.9582336 L829.364853,26.9582336 C829.269377,26.9574636 829.179291,26.9543837 829.099984,26.8943262 C829.041467,26.8488981 829.007588,26.7826809 829.002198,26.708764 C828.994499,26.6017385 828.999119,26.492403 828.999119,26.3846075 C828.999889,26.3368695 828.989109,26.2745021 829.002968,26.229074 C829.006818,26.2152146 829.019138,26.2036651 829.023758,26.1898057 C829.031457,26.1659367 829.027607,26.1366779 829.027607,26.111269 C829.026837,26.0650709 828.999889,26.0327322 828.999119,25.9857642 C828.998349,25.9364863 828.995269,25.8925981 829.016058,25.84794 C829.031457,25.8132914 829.033767,25.7593937 829.026067,25.7216652 C829.022218,25.7054959 829.009898,25.6939464 829.004508,25.6785471 C828.995269,25.655448 828.997579,25.6292691 828.997579,25.6046301 C828.997579,25.5799912 828.991419,25.5522723 828.994499,25.5284033 C828.996809,25.5099241 829.002198,25.5022244 829.010668,25.4868251 C829.026837,25.4544864 829.016828,25.3713299 828.999119,25.3413011 C828.991419,25.3274417 828.96447,25.3251318 828.96139,25.3081925 C828.95677,25.2850935 828.922122,25.2566047 828.922122,25.2327357 L828.922122,25.0556431 L828.922122,24.7207071 C828.922122,24.2702759 828.96062,23.8206147 828.96062,23.3701836 C828.96062,23.143813 828.999119,22.9174425 828.999119,22.6910719 C828.999119,22.4700912 828.992959,22.2498804 829.003738,22.0296696 C829.008358,21.9272639 829.016828,21.8271681 829.048397,21.7293821 C829.063796,21.6808742 829.075345,21.6354461 829.079965,21.5846282 C829.084585,21.5276506 829.067646,21.469133 829.067646,21.4121554 C829.066876,21.1865548 829.039157,20.9609543 829.039157,20.7345837 L829.039157,20.4188969 L829.039157,20.2679832 L829.039157,20.2448842 L829.039157,19.8160121 C829.039157,19.7967629 829.109994,19.8306415 829.129243,19.8306415 L830.17178,19.8306415 C830.191029,19.8306415 830.098633,19.7967629 830.098633,19.8160121 L830.098633,20.2448842 L830.1533,20.2448842 C830.1533,20.2456542 830.207198,20.2641334 830.208738,20.2679832 C830.219518,20.3010919 830.264176,20.3095615 830.292665,20.3195711 C830.333473,20.3349704 830.376591,20.3572995 830.419709,20.3611493 C830.471297,20.3649992 830.509795,20.3388203 830.549834,20.3111014 C830.713067,20.1986861 830.87938,20.0908906 831.048773,19.9884849 C831.203536,19.8945489 831.36292,19.8137022 831.545402,19.795993 C831.734044,19.7775137 831.935776,19.7921431 832.123648,19.8113923 C832.885916,19.889929 833.622775,20.2302548 834.2272,20.6953154 C834.267238,20.7261141 834.315746,20.7561428 834.350395,20.7931013 C834.378114,20.82313 834.388123,20.8654783 834.396593,20.9047466 C834.422772,21.0133121 834.451261,21.1234175 834.47359,21.2327529 Z M832.988399,21.4481899 C833.031517,21.4643592 833.074635,21.4805286 833.116983,21.4966979 C833.153942,21.5105573 833.19167,21.5274966 833.231709,21.5228768 C833.307165,21.5136372 833.331034,21.4481899 833.352594,21.3850525 C833.384162,21.2911165 833.415731,21.1971804 833.44653,21.1024744 C833.470399,21.0308674 833.515827,20.944631 833.494268,20.8668642 C833.471939,20.7867876 833.394172,20.7552189 833.327185,20.7190304 C833.246338,20.6759122 833.163951,20.6358739 833.080795,20.5989154 C832.71506,20.4356822 832.317757,20.3232669 831.916604,20.3032478 C831.845767,20.3001679 831.77493,20.3132574 831.714872,20.3532957 C831.641725,20.4025736 831.577818,20.4687908 831.510831,20.5265384 C831.457703,20.5727365 831.373006,20.6220144 831.346827,20.6913115 C831.326808,20.7444393 831.343748,20.8044968 831.387636,20.8399153 C831.419204,20.8645543 831.460013,20.8745639 831.496971,20.8884233 C831.541629,20.9053626 831.586287,20.9223019 831.631716,20.9392412 C831.723342,20.9738897 831.814968,21.0077683 831.906594,21.0424169 C832.086767,21.110174 832.266939,21.1779312 832.447111,21.2449184 C832.628054,21.3126756 832.808226,21.3804327 832.988399,21.4481899 Z M833.80803,25.2367395 C833.818039,25.1859216 833.745662,25.129714 833.745662,25.0788961 L833.745662,24.9041134 L833.745662,24.1895833 L833.745662,23.5528199 C833.745662,23.4481043 833.811109,23.3433887 833.811109,23.2386731 C833.811109,23.1539766 833.877327,23.0792897 833.79417,23.0354015 C833.752592,23.0130725 833.708704,22.9945933 833.665586,22.9745741 C833.620927,22.9545549 833.572419,22.9260661 833.523911,22.9160565 C833.436135,22.8983473 833.379157,22.9645645 833.349899,23.0384814 C833.277522,23.2240437 833.218234,23.4157656 833.175116,23.6105675 C833.08426,24.0132607 833.059621,24.4321232 833.123528,24.841746 C833.153557,25.0296182 833.208225,25.2051708 833.300621,25.3714839 C833.337579,25.4384711 833.369148,25.5270174 833.453074,25.5416468 C833.537001,25.5562762 833.584739,25.4869791 833.645566,25.4392411 C833.714863,25.3845733 833.78955,25.3314456 833.80803,25.2367395 Z" id="Combined-Shape"></path>
                <path d="M830.202424,20.4230548 L828.996655,20.4230548 C828.924278,20.4230548 828.86576,20.3637672 828.86576,20.2906203 L828.86576,19.8448089 C828.86576,19.771662 828.924278,19.7123745 828.997425,19.7123745 L830.202424,19.7123745 C830.274801,19.7123745 830.333319,19.771662 830.333319,19.844039 L830.54968,20.3114094 C830.54968,20.3845564 830.274801,20.4230548 830.202424,20.4230548" id="Fill-15"></path>
                <path d="M830.098325,20.273758 C830.098325,20.2906973 830.084465,20.3045567 830.067526,20.3045567 L829.070418,20.3045567 C829.053478,20.3045567 829.039619,20.2906973 829.039619,20.273758 L829.039619,19.8618252 C829.039619,19.8448859 829.053478,19.8310265 829.070418,19.8310265 L830.067526,19.8310265 C830.084465,19.8310265 830.098325,19.8448859 830.098325,19.8618252 L830.098325,20.273758 Z" id="Fill-16"></path>
                <path d="M821.371894,31.8937272 L821.371894,39.4363319 L848.670333,39.4363319 L848.670333,31.8937272 L821.371894,31.8937272 Z M821.371894,30.8180822 L821.371894,29.6153925 L848.670333,29.6153925 L848.670333,30.8180822 L821.371894,30.8180822 Z" id="Combined-Shape"></path>
                <path d="M836.984917,28.7753576 L836.984917,26.4123264 C836.984917,24.6167614 838.423987,23.1022348 840.209542,23.1022348 L843.694416,23.1022348 C845.479202,23.1022348 847.000658,24.6167614 847.000658,26.4123264 L847.000658,28.7753576 L836.984917,28.7753576 Z" id="Fill-20"></path>
                <path d="M842.040371,22.1748855 C840.64827,22.1748855 839.518727,21.0422629 839.518727,19.6393815 C839.518727,18.2341903 840.64827,17.0961778 842.040371,17.0961778 C843.435553,17.0961778 844.563556,18.2341903 844.563556,19.6393815 C844.563556,21.0422629 843.435553,22.1748855 842.040371,22.1748855" id="Fill-21"></path>
            </g>
        </g>
    </g>
</svg>