
<svg width="32px" height="53px" viewBox="0 0 32 53" version="1.1" xmlns="http://www.w3.org/2000/svg" xmlns:xlink="http://www.w3.org/1999/xlink">
    <!-- Generator: Sketch 45.2 (43514) - http://www.bohemiancoding.com/sketch -->
    <desc>Created with Sketch.</desc>
    <defs></defs>
    <g id="Page-1" stroke="none" stroke-width="1" fill="none" fill-rule="evenodd">
        <g id="02-shell-для-бизнеса" transform="translate(-931.000000, -346.000000)" fill-rule="nonzero" fill="#404040">
            <g id="Group-5" transform="translate(110.000000, 248.000000)">
                <path d="M828.916924,143.502345 C826.040968,142.406743 824.16919,141.418537 822.593288,139.938144 L821.890487,139.277937 L827.23087,129.443817 L828.411622,130.547564 C830.835317,132.813192 834.074287,134.419824 836.627629,134.419824 C838.521519,134.419824 840.087814,133.379204 840.087814,132.011915 C840.087814,131.063022 839.208594,130.453487 836.445101,129.551529 C836.129221,129.448431 834.981551,129.083663 834.80781,129.027672 C834.120663,128.806229 833.573941,128.621043 833.035192,128.423263 C827.31388,126.296108 824.353791,123.273306 824.353791,117.430384 C824.353791,111.038697 828.605489,105.539868 834.575895,104.542857 L834.575895,98.3418113 L841.735972,98.3418113 L841.735972,104.540766 C844.958355,104.977268 847.872914,105.948512 850.285561,107.512265 L851.231492,108.125369 L846.311677,117.765548 L845.113512,116.80036 C843.393277,115.414615 841.405014,114.621608 839.483805,114.621608 C837.55219,114.621608 836.474595,115.237377 836.474595,116.177676 C836.474595,116.906279 837.216121,117.589893 838.741614,118.241399 C839.238273,118.453511 839.4643,118.534671 840.530498,118.900273 C844.457384,120.209235 846.630169,121.178001 848.504164,122.706478 C850.973547,124.720568 852.258726,127.426116 852.258726,131.059856 C852.258726,138.000706 848.610558,142.275902 841.735972,144.247038 L841.735972,150.799838 L834.575895,150.799838 L834.575895,144.792347 C832.692848,144.658257 830.808527,144.222956 828.916924,143.502345 Z M829.806912,141.166125 C831.842509,141.941591 833.842529,142.336944 835.825895,142.336944 L837.075895,142.336944 L837.075895,148.299838 L839.235972,148.299838 L839.235972,142.306673 L840.187198,142.072525 C846.627875,140.487128 849.758726,137.07558 849.758726,131.059856 C849.758726,125.857215 847.175984,123.750666 839.729808,121.268559 C838.586225,120.876474 838.336066,120.78665 837.759716,120.540502 C835.4032,119.534084 833.974595,118.217051 833.974595,116.177676 C833.974595,113.48154 836.354476,112.121608 839.483805,112.121608 C841.542301,112.121608 843.597692,112.788069 845.44483,113.964393 L847.959137,109.037712 C845.809854,107.876567 843.224478,107.171388 840.36746,106.899291 L839.235972,106.79153 L839.235972,100.841811 L837.075895,100.841811 L837.075895,106.825639 L835.907687,106.902243 C830.714482,107.242781 826.853791,111.886409 826.853791,117.430384 C826.853791,122.026349 829.058166,124.277426 833.901557,126.078186 C834.399209,126.260868 834.916586,126.436115 835.574635,126.64818 C835.739837,126.701419 836.893758,127.068174 837.220789,127.174912 C840.984753,128.403407 842.587814,129.514757 842.587814,132.011915 C842.587814,135.026704 839.738374,136.919824 836.627629,136.919824 C833.797971,136.919824 830.577708,135.513878 827.918421,133.416387 L825.031252,138.733003 C826.200271,139.63118 827.677521,140.354929 829.806912,141.166125 Z" id="Page-1"></path>
            </g>
        </g>
    </g>
</svg>