
<svg width="33px" height="25px" viewBox="0 0 33 25" version="1.1" xmlns="http://www.w3.org/2000/svg" xmlns:xlink="http://www.w3.org/1999/xlink">
    <!-- Generator: Sketch 45.2 (43514) - http://www.bohemiancoding.com/sketch -->
    <desc>Created with Sketch.</desc>
    <defs></defs>
    <g id="Page-1" stroke="none" stroke-width="1" fill="none" fill-rule="evenodd">
        <g id="03-shell-для-бизнеса" transform="translate(-660.000000, -384.000000)" fill="#FEFEFE">
            <g id="Group-18" transform="translate(110.000000, 368.000000)">
                <path d="M566.25848,20.160801 C565.17721,20.160801 564.300153,19.3008298 564.300153,18.2366459 C564.300153,17.1708347 565.17721,16.3076091 566.25848,16.3076091 C567.34219,16.3076091 568.218433,17.1708347 568.218433,18.2366459 C568.218433,19.3008298 567.34219,20.160801 566.25848,20.160801" id="Fill-5"></path>
                <path d="M562.331576,25.2029011 L562.331576,23.3763775 C562.331576,22.0136038 563.449457,20.8656195 564.836639,20.8656195 L567.543473,20.8656195 C568.929028,20.8656195 570.232409,22.0136038 570.232409,23.3763775 L570.232409,25.2029011 L562.331576,25.2029011 Z" id="Fill-7"></path>
                <path d="M554.334575,35.3999472 C553.253306,35.3999472 552.376249,34.5399759 552.376249,33.475792 C552.376249,32.4099809 553.253306,31.5467553 554.334575,31.5467553 C555.418286,31.5467553 556.294529,32.4099809 556.294529,33.475792 C556.294529,34.5399759 555.418286,35.3999472 554.334575,35.3999472" id="Fill-11"></path>
                <path d="M550.407753,40.4420473 L550.407753,38.6155237 C550.407753,37.25275 551.525634,36.1047656 552.912816,36.1047656 L555.619651,36.1047656 C557.005205,36.1047656 558.308586,37.25275 558.308586,38.6155237 L558.308586,40.4420473 L550.407753,40.4420473 Z" id="Fill-13"></path>
                <path d="M566.25848,35.3999472 C565.17721,35.3999472 564.300153,34.5399759 564.300153,33.475792 C564.300153,32.4099809 565.17721,31.5467553 566.25848,31.5467553 C567.34219,31.5467553 568.218433,32.4099809 568.218433,33.475792 C568.218433,34.5399759 567.34219,35.3999472 566.25848,35.3999472" id="Fill-17"></path>
                <path d="M562.331576,40.4420473 L562.331576,38.6155237 C562.331576,37.25275 563.449457,36.1047656 564.836639,36.1047656 L567.543473,36.1047656 C568.929028,36.1047656 570.232409,37.25275 570.232409,38.6155237 L570.232409,40.4420473 L562.331576,40.4420473 Z" id="Fill-19"></path>
                <path d="M578.182384,35.3999472 C577.101114,35.3999472 576.224057,34.5399759 576.224057,33.475792 C576.224057,32.4099809 577.101114,31.5467553 578.182384,31.5467553 C579.266094,31.5467553 580.142337,32.4099809 580.142337,33.475792 C580.142337,34.5399759 579.266094,35.3999472 578.182384,35.3999472" id="Fill-23"></path>
                <path d="M574.25548,40.4420473 L574.25548,38.6155237 C574.25548,37.25275 575.373361,36.1047656 576.760543,36.1047656 L579.466564,36.1047656 C580.852932,36.1047656 582.156313,37.25275 582.156313,38.6155237 L582.156313,40.4420473 L574.25548,40.4420473 Z" id="Fill-25"></path>
                <polygon id="Fill-27" points="565.824263 28.4422347 566.584162 28.4422347 566.584162 25.977038 565.824263 25.977038"></polygon>
                <polygon id="Fill-29" points="578.585927 30.5358619 577.826028 30.5358619 577.826028 28.8232418 554.660502 28.8232418 554.660502 30.5358619 553.900603 30.5358619 553.900603 28.0625293 578.585927 28.0625293"></polygon>
                <polygon id="Fill-30" points="565.824263 30.5356179 566.584162 30.5356179 566.584162 28.4422347 565.824263 28.4422347"></polygon>
            </g>
        </g>
    </g>
</svg>