<?xml version="1.0" encoding="UTF-8"?>
<svg width="64px" height="63px" viewBox="0 0 64 63" version="1.1" xmlns="http://www.w3.org/2000/svg" xmlns:xlink="http://www.w3.org/1999/xlink">
    <!-- Generator: Sketch 45 (43475) - http://www.bohemiancoding.com/sketch -->
    <title>Group 24</title>
    <desc>Created with Sketch.</desc>
    <defs></defs>
    <g id="Page-1" stroke="none" stroke-width="1" fill="none" fill-rule="evenodd">
        <g id="01-shell-4" transform="translate(-608.000000, -391.000000)">
            <g id="Group-24" transform="translate(608.680556, 391.000000)">
                <path d="M62.6388007,31.5400913 C62.6388007,48.8381566 48.6172269,62.8599777 31.3203506,62.8599777 C14.0234744,62.8599777 -8.82237873e-05,48.8381566 -8.82237873e-05,31.5400913 C-8.82237873e-05,14.2429099 14.0234744,0.221088811 31.3203506,0.221088811 C48.6172269,0.221088811 62.6388007,14.2429099 62.6388007,31.5400913" id="Fill-1" fill="#DE1D21"></path>
                <path d="M31.2603786,18.7980408 L31.2489095,18.7980408 L31.2489095,44.2662632 L31.2603786,44.2671454 C38.2933584,44.2671454 43.9941589,38.5656831 43.9941589,31.5327034 C43.9941589,24.4997236 38.2933584,18.7980408 31.2603786,18.7980408" id="Fill-4" fill="#FFFFFF"></path>
                <polygon id="Fill-6" fill="#FFFFFF" points="31.2487992 17.3013022 33.0452561 17.3013022 31.2602683 6.852518 31.2487992 6.91736248"></polygon>
                <polygon id="Fill-8" fill="#FFFFFF" points="31.2487992 45.7630679 31.2487992 56.042683 33.0876035 45.7630679"></polygon>
                <polygon id="Fill-10" fill="#FFFFFF" points="43.5613551 52.9163849 39.9554284 42.9329812 36.7912822 44.7600958"></polygon>
                <polygon id="Fill-12" fill="#FFFFFF" points="52.6027935 43.8900328 44.4879695 37.0476164 42.6606343 40.2122037"></polygon>
                <polygon id="Fill-14" fill="#FFFFFF" points="55.919677 31.553458 45.4700106 29.6846577 45.4700106 33.3384458"></polygon>
                <polygon id="Fill-16" fill="#FFFFFF" points="52.6235702 19.2109502 42.6401664 22.8170975 44.4672811 25.9810231"></polygon>
                <polygon id="Fill-18" fill="#FFFFFF" points="43.5981224 10.1696221 36.7543826 18.2844461 39.919411 20.1106785"></polygon>
                <path d="M29.9917867,6.9560045 C29.5336847,6.98555947 29.1693205,7.35742273 29.1693205,7.82147985 L29.1574103,55.2408832 C29.1574103,55.7095721 29.5283913,56.0849643 29.9917867,56.1092258 L29.9917867,6.9560045 Z" id="Fill-20" fill="#FFFFFF"></path>
                <path d="M29.9917867,17.8885639 L24.4634637,12.3604614 C24.1204937,12.0181531 23.5655661,12.0227848 23.2234783,12.3604614 C22.8807289,12.7034313 22.8807289,13.2610057 23.2234783,13.6028728 L29.9917867,20.3694168 L29.9917867,17.8885639 Z" id="Fill-22" fill="#FFFFFF"></path>
                <path d="M29.9917867,42.9922896 L23.2117887,49.7703026 C22.8688187,50.1123904 22.8688187,50.6701853 23.2117887,51.0120524 C23.554097,51.3506112 24.1096863,51.3550224 24.4519946,51.0120524 L29.9917867,45.4731425 L29.9917867,42.9922896 Z" id="Fill-24" fill="#FFFFFF"></path>
                <path d="M29.9917867,30.490185 L9.94866564,18.9119157 C9.52651482,18.6767993 8.99143755,18.8159723 8.74970437,19.233712 C8.50841231,19.65476 8.65199653,20.188955 9.07128008,20.4331143 L29.9917867,32.5175676 L29.9917867,30.490185 Z" id="Fill-26" fill="#FFFFFF"></path>
                <path d="M10.8767799,28.5013782 C10.4881541,28.5013782 10.1343767,28.2428825 10.0291698,27.8505072 C9.90345095,27.384465 10.1809148,26.902322 10.6496036,26.7766031 L18.274565,24.7322374 L16.2319638,17.1072761 C16.1069065,16.6414545 16.3852526,16.1590909 16.8523975,16.0335926 C17.3299088,15.9105204 17.8023472,16.187102 17.9269633,16.6549086 L20.423917,25.9748695 L11.1041767,28.4718232 L10.8767799,28.5013782 Z" id="Fill-28" fill="#FFFFFF"></path>
                <path d="M29.9917867,30.5458542 L9.06488385,42.6206028 C8.6467031,42.8621154 8.50201609,43.3989572 8.74441094,43.8191229 C8.90696327,44.1001157 9.20141016,44.2582568 9.50489999,44.2582568 L9.94204886,44.1415809 L29.9917867,32.5732368 L29.9917867,30.5458542 Z" id="Fill-30" fill="#FFFFFF"></path>
                <path d="M17.0740819,47.0515322 L16.8466851,47.0219773 C16.3799812,46.8960378 16.1007529,46.4167621 16.2262513,45.9480732 L18.2681908,38.3213474 L10.64345,36.2787461 C10.1765256,36.1530272 9.89817958,35.6737515 10.0238985,35.2057243 C10.1496174,34.7399027 10.6262464,34.4633212 11.0984642,34.5846289 L20.4175428,37.0787153 L17.9216919,46.4004407 C17.816485,46.7936982 17.4618254,47.0515322 17.0740819,47.0515322" id="Fill-32" fill="#FFFFFF"></path>
            </g>
        </g>
    </g>
</svg>