<?xml version="1.0" encoding="UTF-8"?>
<svg width="38px" height="37px" viewBox="0 0 38 37" version="1.1" xmlns="http://www.w3.org/2000/svg" xmlns:xlink="http://www.w3.org/1999/xlink">
    <!-- Generator: Sketch 45 (43475) - http://www.bohemiancoding.com/sketch -->
    <title>Group 8</title>
    <desc>Created with Sketch.</desc>
    <defs></defs>
    <g id="Page-1" stroke="none" stroke-width="1" fill="none" fill-rule="evenodd">
        <g id="01-shell-4" transform="translate(-261.000000, -405.000000)" fill="#FFFFFF">
            <g id="Page-1-Copy-5" transform="translate(250.000000, 393.000000)">
                <g id="Group-3" transform="translate(0.000000, 0.098573)">
                    <g id="Group-12">
                        <g id="Group-8" transform="translate(11.789271, 11.871193)">
                            <path d="M7.8032544,18.9974067 C9.45246628,15.2976222 13.8215702,13.6210282 17.5615558,15.2520453 C21.3023988,16.8830625 22.9979104,21.2031168 21.3486985,24.9024774 C19.7001296,28.601202 15.33124,30.278008 11.5903971,28.6478388 C7.85041148,27.0170337 6.15511426,22.6959194 7.8032544,18.9974067 L7.8032544,18.9974067 Z M7.03545131,34.1484409 C7.6131256,33.5408902 8.53461792,33.3269968 9.35022115,33.6822846 C10.1829724,34.04478 10.6487558,34.8906025 10.5606578,35.7406647 L10.7527157,36.0264213 C11.167055,36.1428014 11.5835378,36.2403148 12.0013067,36.3195974 L12.3050412,36.1394096 C12.5851972,35.3255969 13.3720775,34.7481482 14.287568,34.7680748 C15.2184917,34.7888494 15.9890814,35.4222624 16.2169358,36.2704167 L16.5093098,36.4741349 C16.93158,36.4241063 17.3504207,36.3552109 17.76476,36.2697808 L17.9750377,35.9806324 C17.8897263,35.1011042 18.3958075,34.2383228 19.2692854,33.9031736 C20.1541238,33.5633607 21.1296324,33.8749795 21.6618644,34.5997583 L22.0159712,34.6828566 C22.3825104,34.4772306 22.7404755,34.2563416 23.089438,34.0199777 L23.165318,33.6651138 C22.7222558,32.8797072 22.8487225,31.8685359 23.5370016,31.2177401 C24.2308538,30.5618567 25.2693814,30.4851179 26.0442581,30.9720488 L26.4080107,30.9158727 C26.6626589,30.5887789 26.9044462,30.248754 27.1329437,29.8972819 L27.0624224,29.5386023 C26.3347028,28.983624 26.0536895,27.9911074 26.4410206,27.1221785 C26.8285661,26.2538855 27.7586325,25.7898491 28.6636198,25.9458705 L28.9785005,25.7550834 C29.0878192,25.3512509 29.1784894,24.9457224 29.2509399,24.5393461 L29.046664,24.2364187 C28.1609682,23.9983588 27.517917,23.1879379 27.5397807,22.2395144 C27.5605727,21.2980864 28.229989,20.5228551 29.1156848,20.317653 L29.3285347,20.0223571 C29.2700171,19.6081372 29.1932796,19.1983691 29.0989654,18.7919927 L28.7988749,18.5899704 C27.8983889,18.6900276 27.0073344,18.1869858 26.6643737,17.3127573 C26.3259145,16.448916 26.6287916,15.4971007 27.3415066,14.9662887 L27.4165293,14.6175724 C27.2011071,14.256985 26.9689656,13.9057248 26.722034,13.5631561 L26.3719998,13.4872653 C25.5859769,13.8927937 24.5928916,13.7581829 23.9498404,13.0921241 C23.3172924,12.4379366 23.2167621,11.4729782 23.6358171,10.7195814 L23.5648671,10.3761647 C23.2246931,10.1249618 22.8705862,9.88605405 22.5040471,9.66240925 L22.1610864,9.71519366 C21.5868417,10.3528463 20.6409135,10.5832747 19.8085909,10.2201433 C18.9934164,9.86443152 18.5310626,9.04637912 18.5947247,8.2153956 L18.3958075,7.93409072 C17.9709651,7.82619006 17.5441934,7.73885199 17.1163501,7.66995667 L16.8233331,7.83996912 C16.5221708,8.61223263 15.7569399,9.15321986 14.8712441,9.1335052 C14.003125,9.11442649 13.2762629,8.56326396 12.9961069,7.80181171 L12.7065195,7.62586367 C12.2658151,7.68797545 11.8296121,7.76916593 11.3983391,7.86922313 L11.1934201,8.12636165 C11.1882757,8.93148293 10.6950555,9.68996737 9.88866932,9.99925435 C9.09557289,10.3036657 8.22809687,10.0853205 7.67335806,9.51401933 L7.34604502,9.4673825 C6.95785647,9.6910273 6.57995673,9.93184293 6.21341757,10.1898294 L6.1199608,10.5031441 C6.40268896,11.240006 6.2335665,12.1049072 5.6209531,12.6838399 C5.01455585,13.2585328 4.14279282,13.388692 3.41421585,13.0868245 L3.09483377,13.167167 C2.82067963,13.520971 2.56153001,13.8894019 2.31824232,14.271612 L2.35039487,14.594466 C2.88455604,15.168523 3.05560765,16.0209171 2.71693404,16.7794015 C2.37933218,17.5380979 1.62717667,17.9885673 0.839224639,17.9866595 L0.576431064,18.1802023 C0.454251342,18.6158327 0.353935361,19.0533709 0.275268768,19.4926051 L0.4306728,19.7800576 C1.14810355,20.1069393 1.63832289,20.8319301 1.6192457,21.6629136 C1.59995417,22.5000447 1.06857955,23.2076526 0.327784613,23.4984968 L0.156733004,23.7772579 C0.211821053,24.2192478 0.286843689,24.657422 0.38094351,25.0915685 L0.637520924,25.2995264 C1.43769092,25.3186051 2.18641683,25.805324 2.49443834,26.5896707 C2.80674685,27.3861006 2.57396233,28.2577853 1.9761391,28.8049201 L1.92276585,29.1277742 C2.13840234,29.5108322 2.37225861,29.8835028 2.62261987,30.2468461 L2.94993291,30.3401198 C3.70637543,30.0304088 4.60857621,30.190034 5.209186,30.8105158 C5.82072766,31.4437168 5.93326161,32.367338 5.55986324,33.1084396 L5.63059886,33.4374413 C5.97077293,33.7032712 6.32423672,33.9551101 6.69077588,34.1933819 L7.03545131,34.1484409 Z" id="Fill-4"></path>
                            <path d="M27.2125534,7.1840645 C27.2631401,5.78601953 28.4497839,4.69429373 29.8625673,4.74453431 C31.2762081,4.79456291 32.38097,5.96726721 32.3301689,7.36531218 C32.2795822,8.76229723 31.0927241,9.85487097 29.6792977,9.80484237 C28.2665143,9.75481377 27.1617524,8.58126153 27.2125534,7.1840645 M30.8337889,14.3727079 C31.0082701,14.3468456 31.1227332,14.1889164 31.1182318,14.0153002 C31.1015125,13.3784955 31.4680517,12.7650092 32.0945979,12.4930317 C32.7202866,12.2204182 33.4252851,12.3671122 33.8887106,12.8088902 L34.3476348,12.8423839 C34.8127751,12.4697132 35.2333306,12.0374746 35.5979406,11.5516036 L35.5432813,11.0994384 C35.0764261,10.6599922 34.8974435,9.9706151 35.1452326,9.33974598 C35.3921642,8.70993679 35.9959893,8.3198833 36.6401122,8.30758813 C36.8163082,8.30525629 36.9706405,8.18421252 36.9890746,8.01144426 C37.0518793,7.4091932 37.0370891,6.80863802 36.9489911,6.22355779 C36.9228404,6.05100151 36.7631493,5.93801319 36.5869533,5.94225291 C35.9428304,5.9585758 35.3231434,5.59608044 35.0474888,4.97729449 C34.7716199,4.3578726 34.9201647,3.66044 35.3668709,3.20233914 L35.40181,2.74932593 C35.0247677,2.28910521 34.5868498,1.87234154 34.0955587,1.51260199 L33.6383494,1.56623434 C33.1950728,2.02772698 32.4969335,2.20558289 31.8590268,1.96052754 C31.2219774,1.71526021 30.8286445,1.11830879 30.8164265,0.482140029 C30.8127825,0.307887873 30.6914602,0.154198319 30.5161216,0.137027486 C29.9071522,0.0740677656 29.3005406,0.0895427138 28.7080761,0.176668792 C28.5344523,0.201683092 28.4199892,0.3604603 28.4244905,0.533864513 C28.4412098,1.17088122 28.0738133,1.78351957 27.4481245,2.05634503 C26.8224357,2.3289585 26.1174373,2.18226447 25.6531544,1.7404865 L25.1950876,1.70593285 C24.7299472,2.07945146 24.3093918,2.51190207 23.9445674,2.99777304 L23.9996555,3.44993831 C24.4662963,3.88917245 24.6452788,4.57876158 24.3974898,5.2096307 C24.1497007,5.83965188 23.5467331,6.22949338 22.9026102,6.24072862 C22.7264142,6.24412039 22.5720819,6.36516416 22.5536477,6.53772043 C22.4899857,7.1399715 22.5058476,7.73989072 22.5937313,8.3258189 C22.619882,8.49837517 22.7797874,8.61136349 22.9559834,8.60712378 C23.5990346,8.59080088 24.219579,8.95329625 24.4952336,9.57208219 C24.7702451,10.1915041 24.6225577,10.8878768 24.1758515,11.3468256 L24.1409124,11.8000508 C24.5179547,12.2600595 24.9552295,12.6768232 25.447378,13.0367747 L25.904373,12.9831423 C26.347864,12.5205898 27.0457888,12.3437938 27.6826238,12.5888491 C28.3207449,12.8341165 28.7142922,13.4304319 28.7262959,14.0670247 C28.7299398,14.2412768 28.8512621,14.3951784 29.0266008,14.4123492 C29.6347128,14.4753089 30.2421818,14.459834 30.8337889,14.3727079" id="Fill-6"></path>
                        </g>
                    </g>
                </g>
            </g>
        </g>
    </g>
</svg>