<?xml version="1.0" encoding="UTF-8"?>
<svg width="47px" height="28px" viewBox="0 0 47 28" version="1.1" xmlns="http://www.w3.org/2000/svg" xmlns:xlink="http://www.w3.org/1999/xlink">
    <!-- Generator: Sketch 45 (43475) - http://www.bohemiancoding.com/sketch -->
    <title>Fill 4</title>
    <desc>Created with Sketch.</desc>
    <defs></defs>
    <g id="Page-1" stroke="none" stroke-width="1" fill="none" fill-rule="evenodd">
        <g id="01-shell-4" transform="translate(-975.000000, -411.000000)" fill="#FFFFFF">
            <g id="Group-25" transform="translate(969.166667, 392.000000)">
                <path d="M35.0959982,37.6648492 C35.3398421,37.8211872 35.4141027,38.1455886 35.5697893,38.4521849 C35.7269959,38.7583468 35.9958104,39.1772025 36.020564,39.3574255 C36.0453175,39.5396027 35.907436,39.7085346 35.8703058,39.9647553 C35.8331755,40.2264043 35.6334102,40.2335698 35.2955464,40.2522435 C34.9581168,40.2707001 34.1573187,40.3076133 33.8956696,40.2644032 C33.6392318,40.2140276 33.6956872,40.0956884 33.4075475,40.0700663 C33.1141966,40.0390158 33.0206109,40.1645205 32.9213797,40.0833116 L32.4510628,39.5076837 C32.4510628,39.5076837 32.9834806,38.8827658 33.9645018,38.4144032 C34.9387917,37.9460405 35.0959982,37.6648492 35.0959982,37.6648492 M50.4800945,27.6655123 C50.8689853,27.9034935 51.1430112,27.5163398 51.4682811,27.3908351 C51.6237506,27.3289513 52.1861332,27.3908351 52.2302119,27.04776 C52.2797189,26.7040335 52.4052236,26.6536579 52.3928468,26.2476133 C52.3804701,25.8411344 52.3240147,25.8793504 51.6804231,25.4222788 C51.0368316,24.9662928 51.3621015,24.8664102 50.8494431,24.3730769 C50.3367846,23.878875 49.7941614,23.4917212 49.3681403,22.7916743 C48.9438562,22.0914102 49.0745722,21.7416039 48.1250358,21.4480358 C47.1687682,21.1607647 47.4304173,21.2543504 47.0875593,20.6665628 C46.7427471,20.0859407 46.3820839,19.7419971 46.1682048,19.6801133 C45.9506344,19.6173609 45.8746367,19.8605534 45.9189325,20.1043973 C45.9630112,20.3484583 45.9065558,20.9609994 45.194132,20.9353773 C44.4814912,20.9106238 44.4569548,20.4800428 43.0321074,20.5421438 C42.5439853,20.5668973 42.1568316,20.7356121 41.787483,20.9796731 C41.5998773,21.0361285 41.3949008,21.0919325 41.2374771,21.1360112 C40.8255698,21.2482705 40.5374302,21.3605299 40.0760158,21.3792036 C39.6198128,21.3976602 39.4007224,21.7353069 39.4007224,21.7353069 C39.4007224,21.7353069 39.5316555,21.6106708 39.8445487,21.598294 C40.1574419,21.5798374 40.1750299,21.6169677 40.1750299,21.6169677 C40.1750299,21.6169677 39.7754994,21.6486696 39.4078879,21.8979419 C39.0452705,22.1420029 38.9942435,22.1791332 38.6707107,22.1667565 C38.3452236,22.1543797 38.2514208,22.1420029 38.2514208,22.1420029 C38.2514208,22.1420029 38.5769079,22.3726015 38.9692729,22.2727189 C39.3688034,22.1791332 39.4819313,22.0668738 39.4819313,22.0668738 C39.4819313,22.0668738 39.3583809,22.3923609 38.6830874,22.4672729 C38.0130053,22.5415335 37.2332694,22.6978715 36.6515616,23.1232412 C36.0646426,23.5483938 35.5079055,23.4537224 35.5079055,23.4537224 C35.5079055,23.4537224 35.9267612,23.7038633 36.5384337,23.4537224 C37.1520604,23.2107471 37.1077647,23.1725311 37.3322835,23.0791626 C37.5568022,22.9853597 37.650605,22.9482295 37.650605,22.9482295 C37.650605,22.9482295 37.2703996,23.1849079 36.9946367,23.4228891 C36.7260393,23.660436 36.282213,23.878875 35.7519665,23.7789924 C35.2195487,23.6730299 34.783105,23.6358996 34.5336156,23.7976661 C34.5336156,23.7976661 34.9209865,23.7729126 35.1950123,23.8664982 C35.4636097,23.9603011 35.4759865,23.9920029 35.4759865,23.9920029 C35.4759865,23.9920029 35.1207518,23.9044971 34.6133046,23.9355475 C34.1078116,23.9663809 33.9892553,24.0979654 33.739983,24.1537694 C33.4961391,24.2104419 33.414713,24.2351954 33.414713,24.2351954 C33.414713,24.2351954 33.6585569,24.253652 33.9008809,24.2288985 L34.1518903,24.2723257 C32.3839677,24.4853363 31.8765205,24.7919325 30.8583691,25.0915804 C29.633287,25.4476837 29.6969079,25.3345558 28.6097072,25.1534642 C27.5205522,24.9784525 28.1411273,25.2789689 25.3850182,24.6974783 C22.6217435,24.1105593 20.2104466,25.0915804 18.9286919,26.0285229 C18.7165499,26.1850781 18.5415381,26.3785464 18.3841144,26.5969853 C17.6734278,26.5969853 17.0352647,26.1038691 16.3545428,26.0791156 C15.622794,26.0532764 14.9296954,26.4291391 13.9167553,26.4660522 C12.5679055,26.516645 12.2602236,26.1974548 12.2602236,26.1974548 C12.2602236,26.1974548 12.3681403,26.4228421 12.772882,26.559855 C13.1795781,26.7040335 13.4607694,26.7472435 13.4607694,26.7472435 C13.4607694,26.7472435 12.5733339,27.1222377 11.4913445,26.6597377 C10.4058809,26.1974548 9.6120311,25.5786168 8.59192547,25.7662224 C7.57355692,25.9605593 7.11235974,26.435436 7.11235974,26.435436 C7.11235974,26.435436 7.87950176,26.1038691 8.25601585,26.0975722 C8.62362735,26.0914924 8.75651467,26.1344853 8.75651467,26.1344853 C8.75651467,26.1344853 7.38095716,26.6473609 6.96188439,27.0160581 C6.54302876,27.3845381 6.39277054,27.5163398 6.39277054,27.5163398 C6.39277054,27.5163398 7.81240669,26.940929 8.648598,27.0160581 C9.47936092,27.0911872 10.0858222,27.4288339 10.0858222,27.4288339 C10.0858222,27.4288339 9.21054636,27.2909525 8.69267664,27.4349137 C8.17480692,27.5853891 8.05625059,27.6852717 8.05625059,27.6852717 C8.05625059,27.6852717 8.87485387,27.6099255 9.67391491,27.7284818 C10.4729759,27.8407412 10.5541849,27.9723257 10.5541849,27.9723257 C10.0734454,28.0537518 9.12412617,28.2287635 8.65554636,27.853118 C9.21054636,28.7724724 11.0423069,28.6469677 11.5354231,29.0217447 C11.5354231,29.0217447 11.0245018,28.8971086 10.6799067,28.9155651 C10.3368316,28.9411872 10.2732107,29.1659231 10.2732107,29.1659231 C10.2732107,29.1659231 10.5613504,28.9722377 10.9608809,29.0968738 C11.3604114,29.2160816 11.6856813,29.4282236 12.185963,29.2718856 C12.6864619,29.1161989 12.5802823,29.0658234 13.6427295,28.7218797 C14.6982283,28.3781532 14.8291614,28.6035405 15.2727705,28.259814 C15.9676062,27.7221849 16.5916555,26.4599724 17.9845839,27.3845381 C17.5798421,28.4852013 17.5850534,29.8533762 17.8484396,30.6719795 C18.2410217,31.9094384 19.5227764,32.1402541 19.4042201,32.7341215 C19.2858809,33.3212576 17.4597658,33.6402306 16.6921896,33.8462928 C15.9233104,34.0460581 15.9408985,34.7089748 16.4978527,35.2587635 C17.0600182,35.814632 17.5107928,36.1965745 18.3348245,36.6527776 C19.160159,37.1089806 19.6782459,37.8954478 19.8656344,38.3648961 C20.0601884,38.8395558 19.9168785,38.664544 20.3094607,39.0269442 C20.7037799,39.3893445 20.5409278,39.6457823 20.5163914,40.0956884 C20.4916379,40.5455945 19.9346837,40.4643856 19.7968022,40.520841 C19.6606579,40.5764278 19.3920604,40.7701133 19.6039853,41.1394619 C19.8232928,41.508159 19.8727999,41.6699255 20.1733163,42.0766215 C20.4720957,42.4822318 20.6842377,42.0950781 21.0535863,41.508159 C21.4214149,40.9140745 21.3471543,40.5764278 21.3471543,40.5764278 C21.3471543,40.5764278 21.5912154,40.326287 21.4778703,39.8896262 C21.3719079,39.4583938 21.2409748,39.3142154 21.2657283,38.8827658 C21.2904818,38.4521849 21.1968961,38.1705593 20.7602353,38.0016273 C20.3287858,37.8274842 20.3535393,37.7955651 19.9540088,37.1582705 C19.5544783,36.5272729 18.8544313,35.5212811 18.8103527,35.1465041 C18.7660569,34.7717271 18.7606285,34.6338457 19.5846602,34.4588339 C20.4154231,34.289902 22.0402529,34.3094442 22.0402529,34.3094442 C22.0402529,34.3094442 21.3154525,35.3833996 20.6471074,35.6715393 C19.9789795,35.9648903 20.0478116,36.3522612 20.4473421,36.9461285 C20.8468727,37.5330475 21.016456,37.6772259 22.0154994,37.6772259 C23.0088973,37.6772259 24.7344783,38.4958292 25.072125,38.8827658 C25.4097717,39.2707881 25.2275945,39.2143327 25.5652412,39.5076837 C25.9028879,39.8084173 25.8093022,40.0018856 25.5333222,40.3521262 C25.2595135,40.7019325 25.3850182,41.1457588 25.6219137,41.6699255 C25.8657576,42.1949607 26.1345722,42.6264102 26.2335863,42.426645 C26.3271719,42.2329595 26.977929,41.3950311 26.977929,40.8832412 C26.977929,40.3705827 26.7091144,40.2522435 26.6276884,39.6518621 C26.5464795,39.0454008 26.8081285,38.5770381 26.3784161,38.3959466 C25.9471837,38.208341 24.7785569,37.8646144 23.8911215,37.4774607 C22.9967377,37.0894384 22.4840792,36.6395323 22.5034043,36.3707177 C22.5229466,36.1090687 22.9150945,35.570571 23.8220722,35.0209994 C24.7344783,34.4649137 25.1958926,33.7720323 25.659044,33.0279067 C26.1221954,32.2781356 26.3150123,32.2030065 26.8769607,32.0536168 C27.4465088,31.9033586 28.2401414,32.3089689 30.1706989,33.4278715 C32.1012565,34.5400428 33.8956696,34.0460581 33.8956696,34.0460581 C33.8956696,34.0460581 33.969713,34.0593034 33.9449595,34.6214689 C33.9204231,35.1775546 33.6144783,36.3212107 33.0275593,37.0963867 C32.4458515,37.8709114 31.6079231,38.6400076 31.6079231,38.6400076 C31.6079231,38.6400076 31.3834043,38.583118 30.7150593,38.583118 C30.0521426,38.583118 29.9585569,38.5770381 30.1583222,38.9455182 C30.352659,39.3142154 30.7081109,39.8455475 30.7081109,39.8455475 C30.7081109,39.8455475 30.2642846,40.1017682 29.8276238,40.5764278 C29.3892259,41.0521731 28.2772717,42.2948433 27.8651473,42.5202306 C27.4534572,42.7516978 27.1032165,42.7582119 27.0715147,43.0011872 C27.0398128,43.2389513 26.7586215,43.7700663 26.5905581,43.9389982 C26.4209748,44.11401 26.3093668,44.0512576 26.1028703,44.0699313 C25.8905112,44.0944677 26.0090675,44.2325663 25.8286273,44.2386461 C25.6536156,44.2447259 25.4345252,44.2262694 25.2771015,44.5639161 C25.121632,44.8946144 25.1657107,45.3384407 25.2525651,45.7757529 C25.3337741,46.2132823 25.496409,46.1576954 26.0036391,45.8632588 C26.5093492,45.5699079 26.5412682,45.0077424 26.5412682,45.0077424 C26.5412682,45.0077424 26.7019489,45.1137048 26.8841262,44.9573668 C27.0643492,44.8071086 26.977929,44.48249 27.2836567,44.1891391 C27.5896015,43.8947025 28.0581813,43.7579067 28.3903996,43.2328715 C28.721098,42.7015393 29.2654583,42.1578304 29.8895076,41.8017271 C30.5083457,41.4456238 31.671544,40.4704654 31.671544,40.4704654 L32.2777881,40.9512048 C32.2777881,40.9512048 32.2017905,41.0521731 32.3451004,41.3331473 C32.4953586,41.6080417 32.8136802,41.5700428 33.6516086,41.4269501 C34.4825886,41.2827717 35.6509982,41.0202541 35.9515147,41.0263339 C36.2450827,41.0334994 36.5510276,41.2076426 36.7260393,40.9264513 C36.8956227,40.6391802 36.8443785,40.5392975 37.0884396,40.1892741 C37.3270722,39.8394677 37.2456461,39.5211461 36.98226,39.1455006 C36.7260393,38.7707236 36.7772835,38.8827658 36.8072482,38.1395088 C36.8391673,37.3960346 36.9451297,36.3891743 37.176814,35.7527482 C37.4013327,35.120882 37.3023187,35.3215158 38.2021309,35.0147025 C39.1073715,34.7089748 39.9698363,33.5970205 40.1750299,32.7527952 C40.3767494,31.9157353 40.7814912,31.7531004 41.5186684,30.8346144 C42.2575827,29.9215569 42.7509161,28.9659407 43.7071837,27.41624 C44.6567201,25.866105 45.6696602,25.4222788 45.6696602,25.4222788 C45.6696602,25.4222788 45.9630112,25.6289924 46.4120487,25.979233 C46.8630405,26.3292565 47.2430288,26.0100663 48.1675945,26.1409994 C49.0993257,26.2725839 49.6491144,26.7728656 49.8312917,27.04776 C50.0063034,27.3289513 50.0751356,27.41624 50.4800945,27.6655123" id="Fill-4"></path>
            </g>
        </g>
    </g>
</svg>